<svg id="Layer_1" data-name="Layer 1" xmlns="http://www.w3.org/2000/svg" viewBox="0 0 1771.2 378.8"><defs><style>.cls-1{fill:#010000;}.cls-2{fill:#00925c;}.cls-3{fill:#fff;}</style></defs><path class="cls-1" d="M1835,552.4c-32.3,0-54.2,15-54.2,37.5s22.8,31.6,42.8,39.7c15.4,6.3,31.7,12.9,31.7,23.6a11.1,11.1,0,0,1-2.8,7.8c-3.7,4.4-11.3,6.4-23.3,5.8-11.8-.6-25.1-4.5-40-11.4l-6.1-2.8v27.8l3.9,1.1,2.5.6c7.4,1.8,21.7,5,36.1,5,37.5,0,60-14.8,60-39.7,0-23.1-23.2-32.4-43.6-40.5-15-6-30.6-12.1-30.6-21.9,0-2.9-.2-11.4,19.2-11.4,14.4,0,28.7,5.7,36.4,8.9l7.2,3.1V557.5l-7.2-1.4c-7.3-1.5-19.4-3.7-32-3.7ZM566.9,556.8v1.4c1,13.5,1.7,47.3,1.7,59.7,0,11.3-.2,49.1-1.9,65.5v1.4H626c29.1,0,60-9.1,60-35,0-16.3-11.6-28.4-33.6-35,16.1-4.3,27.2-15.4,27.2-28.3,0-21.1-24.4-29.2-47.2-29.7Zm144.1,0v1.4c1,13.5,1.7,47,1.7,59.4,0,11.3-.2,49.4-1.9,65.8v1.4h29.7v-1.1c-1.7-31.4-1.7-62.9-1.7-93.3,1,3.6,2.7,7.1,7.2,13.9.4.8,51.8,75.6,54.4,80v.6h24.2l-.3-1.4c-1.7-16.5-1.7-54.5-1.7-65.8,0-12.5.8-46,1.7-59.4v-1.4h-30l1.4,32.2c.6,16.1.8,32.4,1.9,48.3-2-4.9-3.6-7.5-12.2-20.3-.2-.5-30.1-46.9-40.5-60l-.3-.3Zm146.9,0,.3,1.1c1,13.5,1.7,47.3,1.7,59.7,0,11.3-.2,49.4-1.9,65.8l-.3,1.4h35.8l-.3-1.4c-1.2-11.7-1.6-34.1-1.7-51.4,1.4.1,6.4.3,6.4.3l5,.3c47,0,69.7-12.6,69.7-38.6,0-29.6-31.8-36.6-58.6-37.2Zm182.8,0v1.1c1,13.5,1.9,47.3,1.9,59.7,0,11.3-.4,49.4-2.2,65.8v1.4H1076v-1.4c-1.2-11.7-1.7-34.1-1.9-51.4,1.6.1,6.7.3,6.7.3l5,.3c47,0,69.7-12.6,69.7-38.6,0-29.6-32.1-36.6-58.9-37.2Zm161.9,0-.3.8c-6.6,18.2-49.2,111.3-55.8,125.5l-.8,1.7h30.6l.3-.6c2.7-8.7,5.9-18.7,10-29.4l25.3-.6,20.8.3s3.6.3,4.4.3c5.6,13.8,9.6,24.3,11.4,29.4l.3.6h35.3l-56.9-128Zm95.5,0v1.4c1,13.5,1.7,47,1.7,59.4,0,11.3-.1,49.4-1.9,65.8v1.4h35.5v-1.4c-1.8-16.5-1.9-54.5-1.9-65.8,0-8.9.4-28.8,1.1-44.7,2.9-.4,6.8-.5,9.4-.6,16.7-.3,28.5,3.1,34.2,10a17.77,17.77,0,0,1,3.9,11.7c0,14.8-14.1,22.1-26.9,22.8a42.23,42.23,0,0,1-7.5-.3l-2.5-.6,1.7,2.5c12.4,18.5,31.4,50.5,39.4,65.8l.3.6h38.1l-1.1-1.9c-1.3-2-26.4-38.8-36.9-54.4l-.6-.8c19.3-5.9,28.9-16.8,28.9-33.6,0-29.6-32.1-36.6-58.9-37.2h-56Zm141.1,0v1.1c1,13.5,1.7,47.3,1.7,59.7,0,11.3-.2,49.4-1.9,65.8v1.4h35.6l-.3-1.4c-1.8-16.5-1.7-54.5-1.7-65.8,0-12.4.8-46.2,1.7-59.7v-1.1Zm67.3,0v1.4c1,13.5,1.7,47.3,1.7,59.7,0,11.3.1,49.1-1.7,65.5l-.3,1.4h59.7c29,0,60-9.1,60-35,0-16.3-11.8-28.4-33.9-35,16.2-4.3,27.2-15.4,27.2-28.3,0-21.1-24.4-29.2-47.2-29.7Zm183,0-.3.6c-7,19.4-52,117.7-55.8,125.8l-.8,1.7h30.6l.3-.8c2.7-8.7,5.9-18.7,10-29.4,1,0,25.3-.3,25.3-.3l20.8.3h4.4c5.6,13.8,9.6,24.2,11.4,29.4l.3.8H1771l-56.9-128-24.6-.1ZM606.3,571.3c2.1-.1,4.5,0,6.7,0,24.8.1,33.9,5,33.9,18.6a14,14,0,0,1-3.1,9.4c-4.8,5.7-14.4,8.6-26.1,8.1h-.6l-6.9,18.1h6.9c13.7-.4,25.6,3.9,31.7,11.4a17.73,17.73,0,0,1,4.2,11.7c0,14.2-12.5,21.4-36.9,21.4-4.1,0-10.8,0-15-.3-.9-18.7-.8-44.1-.8-51.7,0-8.9.3-28.8.8-45.8a29.14,29.14,0,0,1,5.2-.9Zm939.9,0c2-.1,4.2,0,6.4,0,24.9.1,34.2,5,34.2,18.6a14.19,14.19,0,0,1-3.3,9.4c-4.8,5.7-14.3,8.6-26.1,8.1h-.6l-6.9,18.1h7.2c13.7-.4,25.3,3.9,31.4,11.4a17.94,17.94,0,0,1,4.4,11.7c0,14.2-12.5,21.4-36.9,21.4-4.2,0-10.8,0-15-.3-.9-18.7-1.1-44.1-1.1-51.7,0-9,.4-28.9,1.1-45.8A26.16,26.16,0,0,1,1546.2,571.3Zm-644.4,1.1c16.7-.3,28.2,3.1,33.9,10a18,18,0,0,1,3.9,11.7c0,18.5-20.6,22.5-38.1,22.5l-7.2-.3s-1.7-.4-2.8-.6c-.1-4.3,0-9.7,0-16.1,0-8.2-.1-17.5.3-26.4A74.56,74.56,0,0,1,901.8,572.4Zm182.5,0c16.7-.3,28.5,3.1,34.2,10a18,18,0,0,1,3.9,11.7c0,18.5-20.6,22.5-38,22.5l-7.2-.3s-1.8-.4-2.8-.6c-.1-4.3-.3-9.7-.3-16.1,0-8.2.2-17.5.6-26.4a69.18,69.18,0,0,1,9.6-.8Zm127.5,22.2c2.9,6,10.3,23.1,18.6,43.3h-2.8l-15.8.3s-16.1-.2-18.6-.3C1199.8,621.7,1206.1,607,1211.8,594.6Zm486.8,0c2.9,6,10.3,23.2,18.6,43.3h-2.8l-15.8.3s-16.1-.3-18.6-.3C1686.7,621.7,1693,607.1,1698.6,594.6Z" transform="translate(-114.4 -309.6)"/><path class="cls-2" d="M114.4,688.4H493.1V309.6H114.4Z" transform="translate(-114.4 -309.6)"/><path class="cls-3" d="M329.4,351.6c10.3,4.3,52,27.1,57.2,34.2-22.1,2.9-64.2,15.4-85.5,26.7,24.4-5.4,58.5-8.2,81.9-9.4-9.1,13.5-14.1,20.4-28.9,36.4,25.3-15.2,32.4-16.3,55.8-30,8.8,13.1,11.1,43.3,11.4,67.2,7.7-15.2,16.9-72.4,13.1-82.8,14.1-9.2,14.1-12.9,17.8-19.2-14.2,1.3-22.2,1.5-30,3.9-19.6-12.1-59.9-24.5-92.8-27Zm-55.5,72.5c-6.3.9-24.2,9-36.1,18.3a149.81,149.81,0,0,0-21.1-.6c-13.2.6-30.6,3.9-37.2,6.7,12.9.6,30.4,3.8,37.2,10.6,0,0-19.7,17.7-38.9,56.4,0,0,35.3-32.9,50.5-41.1,0,0,7.8,26.8,13.3,40,0,0,4.9-30.9,13.1-48.6,0,0,2.3-1.4,13.6-2.5s27.1-1.7,57.5,3.6c0,0-27.9-17.7-62.5-22.5,1.3-4.8,6.2-14.9,10.6-20.3Zm-99.5,105c-2.2,19-2.9,32.9-.3,48a140.08,140.08,0,0,0-21.9,7.5c10,6.1,18.2,11,29.4,16.1a95.9,95.9,0,0,0,21.9,31.1,60.08,60.08,0,0,1-1.9-23.9,135.35,135.35,0,0,0,37.2,6.1,93.68,93.68,0,0,1-33.9-20.8,106.17,106.17,0,0,1,12.8-24.4c-10.9,1.6-18.9,2.9-28.3,4.7C181.8,560,178.3,547,174.4,529.1Zm166.1,59.1a188.4,188.4,0,0,1-28.9,17.2c-.6-5.2-.9-9.5-1.1-15.3a280.18,280.18,0,0,1-18.3,22.2,113.52,113.52,0,0,1-32.2,4.4,76.43,76.43,0,0,0,21.1,7.2,145.49,145.49,0,0,1-20.6,15.8c11.9-2.8,27.3-7.9,38.9-14.7a86.75,86.75,0,0,0,16.1-.8c-1-3.6-1.8-6.3-2.8-10.8,11-8.4,18.8-16,27.8-25.2Z" transform="translate(-114.4 -309.6)"/></svg>