<svg id="Layer_1" data-name="Layer 1" xmlns="http://www.w3.org/2000/svg" viewBox="0 0 1405.8 569"><defs><style>.cls-1{fill:#1879bf;}.cls-1,.cls-2{fill-rule:evenodd;}.cls-2{fill:#fff;}</style></defs><path class="cls-1" d="M1405.8,569V0H0V569Z"/><path class="cls-2" d="M137.5,54.9H290.3l93.9,317.6h1.3L449.8,54.9H565.3l-97,458H315.9L220.2,196h-1.3L155.2,512.9H39.7l97.8-458Zm473,0H733.1l-36,175.2H842L878.1,54.9h122.6l-95.1,458H783l40.7-196.2h-145L638,512.9H515.3l95.2-458Zm713.1,103.7c-23.6-11.1-55.8-20.9-101-20.9-48.5,0-87.9,7.2-87.9,44,0,64.9,177.8,40.7,177.8,179.8,0,126.6-117.5,159.4-223.7,159.4-47.2,0-101.7-11.2-141.7-23.7L976,404c24.2,15.8,72.8,26.3,112.8,26.3,38.1,0,97.7-7.2,97.7-54.5,0-73.5-177.8-45.9-177.8-175.1,0-118.2,103.7-153.6,204.1-153.6,56.4,0,109.5,5.9,140.4,20.3l-29.6,91.2Z"/></svg>