<svg id="Layer_1" data-name="Layer 1" xmlns="http://www.w3.org/2000/svg" viewBox="0 0 2279.5 405.45"><defs><style>.cls-1{fill:#313c93;}.cls-1,.cls-2{fill-rule:evenodd;}.cls-2{fill:#93c04e;}</style></defs><path class="cls-1" d="M1375,437.8V394.1H1219.3V618.7H1375V573.2h-92.6V523.4h77.1V479.8h-77.1v-42Zm274.6,136.6h-97.3V394.1h-63.8V618.7h161.1V574.4Zm514-94.6c-43.1-9.7-58.1-10.8-58.1-28,0-15.9,21.3-20.9,33.6-20.9,19.9,0,43.3,4.6,67.2,16.9l17.4-41.3c-24.5-13.4-55.9-18.9-86.1-18.9-59.4,0-99.2,24.1-100.9,71.1-1.7,42.8,33.1,58.8,65.1,65.5,30.9,6.4,62.2,11.8,62.8,30.2.6,16.9-14.6,24.1-43.3,24.1-26.6,0-51.3-8.5-76.5-19.1l-14.7,44.9c29,12.3,58.5,19.2,88.9,19.2,42.2,0,73-6.6,95.7-27.9,15.7-14.6,20.8-32.3,20.8-49.1-.1-35.5-22.3-55.6-71.9-66.7ZM1128.7,438.5V394.2H932.8v44.3H999V618.8h63.4V438.5Zm738.6-44.4V536.8c0,11.2,0,14.3-.7,18.6-2,13.6-15.2,21.5-36.3,21.8-15.6-.3-27-4.9-32.3-13-2.7-4.2-4-11.7-4-23.7V394.1h-66V548.9c0,21.4,2.9,31.1,12.5,43.4,16,20,47.1,30.5,90,30.5h2.3c57.4,0,87.1-22.4,95.7-43.3,4.3-10.2,4.6-15,4.6-35.5V394.1ZM962.7,332.7,591.5,406.6v25.9l1.2-.3c245.2-59.6,370-95.5,371-95.7,1.4-.4,1.9-1.4,1.7-2.3a2,2,0,0,0-2.7-1.5Z" transform="translate(-110.2 -325.55)"/><path class="cls-2" d="M651.2,353.3c5.7-3.7,7.4-1.4,5.7,2.8-2.7,6.7-15.3,46.8-108.8,123.5-24.4,20-41.7,31.2-76.8,52C528.8,451,612.7,378.3,651.2,353.3Zm9.7-27.7c-18,1-51.5,27.8-69.8,43.6-73,63.2-127.3,121.3-166.8,182.1C342,595.4,237,640.7,132.8,676.1l-2.5.9-20.1,54,11.5-4.4c66.3-25.3,176.9-72.7,277.2-125.4-5.7,15-8.5,28.9-8.5,41.5a71.64,71.64,0,0,0,4.7,26.1c6.3,15.9,18.7,27.9,36,34.8,25.7,10.2,60.7,10.4,100.6-1.7,102.1-31,223.1-125.9,249.5-144.8l1-.7a1.88,1.88,0,1,0-2.1-3.1h0l-1.3.8C750.5,571,613.1,652.7,523.7,676.6c-45.5,12.2-80.2,5.6-93.3-12.8-4.5-6.2-6.7-14.2-6.7-23.4,0-18,8.5-40.9,24.8-66.4q21.15-12,41.7-24.9c87.2-49,187.6-144.2,191.9-202.4v-1.3a20.24,20.24,0,0,0-6-14,19.11,19.11,0,0,0-15.2-5.8Zm-12.7,23.1Z" transform="translate(-110.2 -325.55)"/><path class="cls-1" d="M590.3,406.8,199.8,490.7l-15.1,40.6,406.8-98.9.6-.2V406.4Zm1721.5,29.9c0-20.3,15.3-35.5,34.8-35.5,19.3,0,34.6,15.2,34.6,35.5,0,20.6-15.3,35.6-34.6,35.6C2327,472.4,2311.8,457.3,2311.8,436.7Zm34.8,42.8c23.2,0,43.1-18.1,43.1-42.7s-19.9-42.6-43.1-42.6c-23.5,0-43.3,18-43.3,42.6S2323.1,479.5,2346.6,479.5Zm-9.1-39.4h8.6l13,21.3h8.3l-14-21.6c7.2-.9,12.8-4.7,12.8-13.6,0-9.7-5.8-14-17.4-14H2330v49.2h7.4V440.1Zm0-6.3V418.5h10.2c5.3,0,10.8,1.2,10.8,7.3,0,7.5-5.7,8-12,8Z" transform="translate(-110.2 -325.55)"/></svg>